<svg width="644" height="426" viewBox="0 0 644 426" fill="none" xmlns="http://www.w3.org/2000/svg">
<path d="M33.7355 424.818C15.6562 424.818 1 410.162 1 392.083V33.7355C1 15.6562 15.6562 1 33.7355 1H490.142C513.122 1 529.119 24.2488 525.848 46.7112C524.241 57.7452 523.58 69.4357 525.049 80.0854C526.518 90.739 530.107 100.263 536.922 107.078C543.737 113.893 553.261 117.482 563.915 118.951C574.564 120.42 586.255 119.759 597.289 118.152C619.751 114.881 643 130.878 643 153.858V392.083C643 410.162 628.344 424.818 610.264 424.818H33.7355Z" fill="white" stroke="#E8E8E8" stroke-width="2"/>
</svg>
